<svg xmlns="http://www.w3.org/2000/svg" xmlns:xlink="http://www.w3.org/1999/xlink" width="2000" zoomAndPan="magnify" viewBox="0 0 1500 1499.999933" height="2000" preserveAspectRatio="xMidYMid meet" version="1.0"><defs><clipPath id="7f66c0ac97"><path d="M 342.578125 306.75 L 1157 306.75 L 1157 1193.25 L 342.578125 1193.25 Z M 342.578125 306.75 " clip-rule="nonzero"/></clipPath></defs><g clip-path="url(#7f66c0ac97)"><path fill="#8e6b69" d="M 705.542969 825.664062 C 699.070312 819.90625 687.261719 816.320312 674.757812 816.320312 C 662.25 816.320312 650.441406 819.90625 643.96875 825.664062 C 641.871094 827.539062 639.242188 828.460938 636.628906 828.460938 C 633.59375 828.460938 630.558594 827.210938 628.371094 824.761719 C 624.324219 820.203125 624.730469 813.230469 629.289062 809.183594 C 639.957031 799.695312 656.53125 794.269531 674.757812 794.269531 C 692.984375 794.269531 709.554688 799.710938 720.203125 809.183594 C 724.765625 813.230469 725.167969 820.21875 721.121094 824.761719 C 717.078125 829.324219 710.085938 829.730469 705.542969 825.683594 Z M 874.53125 809.183594 C 863.863281 799.695312 847.292969 794.269531 829.066406 794.269531 C 810.839844 794.269531 794.269531 799.710938 783.601562 809.183594 C 779.039062 813.230469 778.636719 820.203125 782.679688 824.761719 C 786.726562 829.324219 793.714844 829.730469 798.257812 825.683594 C 804.734375 819.925781 816.542969 816.339844 829.046875 816.339844 C 841.554688 816.339844 853.363281 819.925781 859.835938 825.683594 C 861.933594 827.558594 864.5625 828.476562 867.175781 828.476562 C 870.210938 828.476562 873.242188 827.226562 875.433594 824.78125 C 879.480469 820.21875 879.074219 813.25 874.511719 809.203125 Z M 805.0625 947.84375 C 793.699219 955.070312 773.339844 959.578125 751.910156 959.578125 C 730.484375 959.578125 710.125 955.089844 698.757812 947.84375 C 693.609375 944.570312 686.804688 946.078125 683.527344 951.226562 C 680.253906 956.375 681.761719 963.183594 686.914062 966.457031 C 702.070312 976.113281 725.757812 981.628906 751.910156 981.628906 C 778.066406 981.628906 801.753906 976.09375 816.910156 966.457031 C 822.058594 963.183594 823.566406 956.359375 820.292969 951.226562 C 817.019531 946.078125 810.195312 944.570312 805.0625 947.84375 Z M 1022.273438 868.203125 C 1000.058594 920.714844 965.003906 964.449219 918.101562 998.273438 C 914.386719 1004.820312 910.542969 1011.09375 906.550781 1017.050781 C 894.746094 1034.636719 881.519531 1049.863281 867.007812 1062.703125 L 867.007812 1182.214844 C 867.007812 1188.300781 862.0625 1193.25 855.972656 1193.25 C 849.886719 1193.25 844.9375 1188.300781 844.9375 1182.214844 L 844.9375 1079.714844 C 831.308594 1088.78125 816.726562 1096.046875 801.238281 1101.433594 C 784.613281 1107.210938 768.226562 1110.097656 751.835938 1110.097656 C 735.449219 1110.097656 719.0625 1107.210938 702.4375 1101.433594 C 686.949219 1096.046875 672.363281 1088.78125 658.738281 1079.714844 L 658.738281 1182.214844 C 658.738281 1188.300781 653.789062 1193.25 647.703125 1193.25 C 641.613281 1193.25 636.667969 1188.300781 636.667969 1182.214844 L 636.667969 1062.703125 C 622.15625 1049.863281 608.949219 1034.652344 597.121094 1017.050781 C 580.753906 992.683594 566.757812 963.347656 555.28125 929.414062 C 492.5625 871.203125 458.757812 803.558594 454.824219 728.296875 C 451.328125 661.273438 471.523438 565.453125 585.589844 485.207031 C 585.316406 481.289062 585.167969 477.335938 585.167969 473.398438 C 585.167969 381.511719 659.933594 306.75 751.820312 306.75 C 843.707031 306.75 918.46875 381.511719 918.46875 473.398438 C 918.46875 477.429688 918.304688 481.492188 918.011719 485.519531 C 924.117188 489.621094 930.09375 493.960938 935.867188 498.558594 C 948.414062 508.527344 959.980469 519.105469 970.484375 530.121094 L 989.078125 485.703125 C 990.789062 481.601562 994.816406 478.9375 999.265625 478.9375 C 1003.71875 478.9375 1007.726562 481.601562 1009.457031 485.703125 L 1035.902344 548.917969 L 1099.136719 575.367188 C 1103.238281 577.078125 1105.902344 581.105469 1105.902344 585.554688 C 1105.902344 590.007812 1103.238281 594.015625 1099.136719 595.746094 L 1035.902344 622.191406 L 1032.464844 630.433594 C 1042.910156 660.375 1048.28125 692.191406 1048.832031 727.558594 C 1049.605469 776.628906 1040.429688 825.277344 1022.257812 868.222656 Z M 981.277344 561.589844 C 980.15625 564.257812 978.042969 566.390625 975.355469 567.511719 L 932.28125 585.535156 L 975.355469 603.5625 C 978.023438 604.683594 980.15625 606.796875 981.277344 609.484375 L 999.304688 652.539062 L 1017.328125 609.484375 C 1018.449219 606.816406 1020.566406 604.683594 1023.25 603.5625 L 1066.324219 585.535156 L 1023.25 567.511719 C 1020.582031 566.390625 1018.449219 564.257812 1017.328125 561.589844 L 999.304688 518.535156 Z M 607.332031 471.414062 C 659.820312 441.671875 715.550781 431.503906 751.855469 432.203125 C 789.246094 431.503906 845.433594 444.027344 896.417969 472.316406 C 895.828125 393.101562 831.21875 328.820312 751.855469 328.820312 C 672.492188 328.820312 608.398438 392.601562 607.332031 471.414062 Z M 542.148438 884.023438 C 540.421875 876.976562 538.746094 869.804688 537.203125 862.464844 C 527.25 815.585938 534.019531 772.601562 557.875 731.054688 C 591.367188 672.734375 650.679688 631.570312 738.980469 605.417969 C 723.917969 542.203125 670.785156 502.054688 600.617188 501.648438 C 492.765625 576.488281 473.675781 665.285156 476.914062 727.136719 C 479.890625 784.320312 501.816406 836.9375 542.167969 884.023438 Z M 944.917969 857.886719 C 953.691406 816.578125 947.730469 778.671875 926.691406 742.054688 C 895.351562 687.484375 838.132812 649.0625 751.835938 624.675781 C 665.542969 649.0625 608.324219 687.484375 576.984375 742.054688 C 555.941406 778.691406 549.984375 816.578125 558.757812 857.886719 C 584.652344 979.84375 635.433594 1054.773438 709.683594 1080.578125 C 738.042969 1090.4375 765.632812 1090.4375 793.992188 1080.578125 C 868.242188 1054.773438 919.023438 979.84375 944.917969 857.886719 Z M 1026.78125 727.890625 C 1026.414062 704.644531 1023.839844 683.105469 1018.964844 662.710938 L 1009.472656 685.386719 C 1007.765625 689.488281 1003.734375 692.15625 999.285156 692.15625 C 994.835938 692.15625 990.824219 689.488281 989.097656 685.386719 L 962.648438 622.171875 L 899.433594 595.726562 C 895.332031 594.015625 892.664062 589.988281 892.664062 585.554688 C 892.664062 581.121094 895.332031 577.09375 899.433594 575.367188 L 959.207031 550.351562 C 948.230469 538.269531 935.8125 526.699219 922.167969 515.832031 C 869.839844 474.226562 796.972656 453.425781 752.058594 454.273438 C 751.910156 454.273438 751.765625 454.273438 751.617188 454.273438 C 721.746094 453.683594 677.476562 461.132812 633.632812 482.484375 C 699.457031 493.960938 747.550781 538.984375 761.382812 604.460938 C 851.523438 630.558594 911.902344 672.015625 945.820312 731.054688 C 969.671875 772.601562 976.441406 815.605469 966.492188 862.464844 C 959.613281 894.835938 950.988281 924.226562 940.6875 950.453125 C 1016.480469 875.597656 1027.628906 781.46875 1026.78125 727.875 Z M 406.027344 519.121094 C 412.117188 519.121094 417.0625 514.175781 417.0625 508.085938 L 417.0625 488.09375 C 417.0625 482.007812 412.117188 477.058594 406.027344 477.058594 C 399.941406 477.058594 394.992188 482.007812 394.992188 488.09375 L 394.992188 508.085938 C 394.992188 514.175781 399.941406 519.121094 406.027344 519.121094 Z M 430.085938 543.179688 L 450.078125 543.179688 C 456.164062 543.179688 461.113281 538.230469 461.113281 532.144531 C 461.113281 526.054688 456.164062 521.109375 450.078125 521.109375 L 430.085938 521.109375 C 424 521.109375 419.050781 526.054688 419.050781 532.144531 C 419.050781 538.230469 424 543.179688 430.085938 543.179688 Z M 406.027344 587.230469 C 412.117188 587.230469 417.0625 582.28125 417.0625 576.195312 L 417.0625 556.203125 C 417.0625 550.113281 412.117188 545.164062 406.027344 545.164062 C 399.941406 545.164062 394.992188 550.113281 394.992188 556.203125 L 394.992188 576.195312 C 394.992188 582.28125 399.941406 587.230469 406.027344 587.230469 Z M 361.980469 543.179688 L 381.972656 543.179688 C 388.058594 543.179688 393.007812 538.230469 393.007812 532.144531 C 393.007812 526.054688 388.058594 521.109375 381.972656 521.109375 L 361.980469 521.109375 C 355.890625 521.109375 350.945312 526.054688 350.945312 532.144531 C 350.945312 538.230469 355.890625 543.179688 361.980469 543.179688 Z M 1101.875 908.886719 C 1095.789062 908.886719 1090.839844 913.835938 1090.839844 919.921875 L 1090.839844 939.914062 C 1090.839844 946.003906 1095.789062 950.953125 1101.875 950.953125 C 1107.964844 950.953125 1112.910156 946.003906 1112.910156 939.914062 L 1112.910156 919.921875 C 1112.910156 913.835938 1107.964844 908.886719 1101.875 908.886719 Z M 1145.925781 952.9375 L 1125.933594 952.9375 C 1119.84375 952.9375 1114.898438 957.886719 1114.898438 963.972656 C 1114.898438 970.0625 1119.84375 975.007812 1125.933594 975.007812 L 1145.925781 975.007812 C 1152.011719 975.007812 1156.960938 970.0625 1156.960938 963.972656 C 1156.960938 957.886719 1152.011719 952.9375 1145.925781 952.9375 Z M 1101.875 976.996094 C 1095.789062 976.996094 1090.839844 981.941406 1090.839844 988.03125 L 1090.839844 1008.023438 C 1090.839844 1014.109375 1095.789062 1019.058594 1101.875 1019.058594 C 1107.964844 1019.058594 1112.910156 1014.109375 1112.910156 1008.023438 L 1112.910156 988.03125 C 1112.910156 981.941406 1107.964844 976.996094 1101.875 976.996094 Z M 1077.820312 952.9375 L 1057.828125 952.9375 C 1051.738281 952.9375 1046.792969 957.886719 1046.792969 963.972656 C 1046.792969 970.0625 1051.738281 975.007812 1057.828125 975.007812 L 1077.820312 975.007812 C 1083.90625 975.007812 1088.855469 970.0625 1088.855469 963.972656 C 1088.855469 957.886719 1083.90625 952.9375 1077.820312 952.9375 Z M 524.363281 969.492188 C 524.363281 973.941406 521.695312 977.949219 517.59375 979.679688 L 465.5625 1001.457031 L 443.789062 1053.488281 C 442.078125 1057.589844 438.050781 1060.253906 433.597656 1060.253906 C 429.148438 1060.253906 425.136719 1057.589844 423.410156 1053.488281 L 401.632812 1001.457031 L 349.601562 979.679688 C 345.5 977.96875 342.832031 973.941406 342.832031 969.492188 C 342.832031 965.039062 345.5 961.03125 349.601562 959.300781 L 401.632812 937.523438 L 423.410156 885.492188 C 425.121094 881.390625 429.148438 878.726562 433.597656 878.726562 C 438.050781 878.726562 442.058594 881.390625 443.789062 885.492188 L 465.5625 937.523438 L 517.59375 959.300781 C 521.695312 961.011719 524.363281 965.039062 524.363281 969.492188 Z M 484.730469 969.492188 L 452.855469 956.15625 C 450.1875 955.035156 448.054688 952.917969 446.933594 950.234375 L 433.597656 918.359375 L 420.265625 950.234375 C 419.140625 952.902344 417.027344 955.035156 414.34375 956.15625 L 382.46875 969.492188 L 414.34375 982.824219 C 417.007812 983.945312 419.140625 986.0625 420.265625 988.746094 L 433.597656 1020.621094 L 446.933594 988.746094 C 448.054688 986.082031 450.171875 983.945312 452.855469 982.824219 Z M 484.730469 969.492188 " fill-opacity="1" fill-rule="nonzero"/></g></svg>