<svg xmlns="http://www.w3.org/2000/svg" xmlns:xlink="http://www.w3.org/1999/xlink" width="2000" zoomAndPan="magnify" viewBox="0 0 1500 1499.999933" height="2000" preserveAspectRatio="xMidYMid meet" version="1.0"><defs><clipPath id="e819209d2d"><path d="M 427.085938 435.507812 L 1072.835938 435.507812 L 1072.835938 1150 L 427.085938 1150 Z M 427.085938 435.507812 " clip-rule="nonzero"/></clipPath></defs><g clip-path="url(#e819209d2d)"><path fill="#8e6b69" d="M 771.824219 577.105469 L 1048.730469 577.105469 L 1054.769531 533.976562 L 765.785156 533.976562 Z M 835.296875 955.042969 L 606.25 955.042969 C 595.980469 955.042969 586.640625 959.25 579.863281 966.027344 C 573.085938 972.804688 568.878906 982.144531 568.878906 992.414062 L 568.878906 1121.902344 C 568.878906 1125.101562 570.191406 1128.011719 572.308594 1130.128906 C 574.425781 1132.242188 577.335938 1133.558594 580.535156 1133.558594 L 861.015625 1133.558594 C 864.210938 1133.558594 867.125 1132.242188 869.238281 1130.128906 C 871.355469 1128.011719 872.667969 1125.101562 872.667969 1121.902344 L 872.667969 992.414062 C 872.667969 982.144531 868.460938 972.804688 861.6875 966.027344 C 854.910156 959.246094 845.566406 955.042969 835.296875 955.042969 Z M 889.023438 1071.390625 L 889.023438 1089.003906 L 940.347656 1089.003906 L 940.347656 1080.5625 C 940.347656 1078.046875 939.3125 1075.753906 937.648438 1074.089844 C 935.980469 1072.425781 933.691406 1071.390625 931.175781 1071.390625 Z M 889.023438 993.296875 L 991.648438 993.296875 L 991.648438 1089.003906 L 956.703125 1089.003906 L 956.703125 1080.558594 C 956.703125 1073.53125 953.832031 1067.148438 949.210938 1062.523438 C 944.585938 1057.902344 938.203125 1055.03125 931.175781 1055.03125 L 889.023438 1055.03125 C 889.023438 1055.03125 889.023438 993.296875 889.023438 993.296875 Z M 840.023438 866.78125 L 601.519531 866.78125 L 601.519531 903.375 L 840.023438 903.375 Z M 825.726562 938.6875 L 825.726562 919.730469 L 615.8125 919.730469 L 615.8125 938.6875 Z M 842.085938 919.730469 L 848.199219 919.730469 C 852.71875 919.730469 856.378906 916.066406 856.378906 911.550781 L 856.378906 858.601562 C 856.378906 854.085938 852.71875 850.421875 848.199219 850.421875 L 810.101562 850.421875 L 774.117188 593.464844 L 1046.441406 593.464844 L 992.734375 976.941406 L 886.738281 976.941406 C 884.140625 968.351562 879.441406 960.65625 873.246094 954.464844 C 865.023438 946.242188 854.167969 940.65625 842.082031 939.117188 L 842.082031 919.730469 Z M 590.972656 998.546875 C 590.972656 994.03125 594.632812 990.367188 599.148438 990.367188 C 603.664062 990.367188 607.328125 994.03125 607.328125 998.546875 L 607.328125 1068.394531 C 607.328125 1072.910156 603.664062 1076.570312 599.148438 1076.570312 C 594.632812 1076.570312 590.972656 1072.910156 590.972656 1068.394531 Z M 590.972656 1101.339844 C 590.972656 1096.824219 594.632812 1093.164062 599.148438 1093.164062 C 603.664062 1093.164062 607.328125 1096.824219 607.328125 1101.339844 L 607.328125 1105.96875 C 607.328125 1110.484375 603.664062 1114.144531 599.148438 1114.144531 C 594.632812 1114.144531 590.972656 1110.484375 590.972656 1105.96875 Z M 738.007812 850.421875 L 593.339844 850.421875 C 588.824219 850.421875 585.164062 854.085938 585.164062 858.601562 L 585.164062 911.550781 C 585.164062 916.066406 588.824219 919.730469 593.339844 919.730469 L 599.457031 919.730469 L 599.457031 939.117188 C 587.378906 940.65625 576.515625 946.242188 568.296875 954.464844 C 558.5625 964.195312 552.519531 977.632812 552.519531 992.414062 L 552.519531 1100.902344 L 466.902344 1100.902344 C 460.457031 1100.902344 454.59375 1098.257812 450.335938 1094.003906 C 446.082031 1089.746094 443.4375 1083.878906 443.4375 1077.4375 L 443.4375 716.199219 C 443.4375 698.472656 450.695312 682.347656 462.390625 670.65625 C 474.082031 658.960938 490.207031 651.703125 507.933594 651.703125 L 673.507812 651.703125 C 691.238281 651.703125 707.359375 658.960938 719.054688 670.65625 C 730.746094 682.347656 738.007812 698.472656 738.007812 716.199219 Z M 717.957031 452.054688 L 528.207031 452.054688 L 528.207031 471.15625 L 708.40625 471.15625 C 711.023438 471.15625 713.410156 470.078125 715.148438 468.34375 C 716.882812 466.609375 717.957031 464.222656 717.957031 461.605469 Z M 477.125 729.851562 L 477.125 953.140625 C 477.125 957.65625 480.789062 961.316406 485.304688 961.316406 C 489.820312 961.316406 493.484375 957.65625 493.484375 953.140625 L 493.484375 729.851562 C 493.484375 725.335938 489.820312 721.671875 485.304688 721.671875 C 480.789062 721.671875 477.125 725.335938 477.125 729.851562 Z M 477.125 1024.929688 L 477.125 1032.65625 C 477.125 1037.175781 480.789062 1040.835938 485.304688 1040.835938 C 489.820312 1040.835938 493.484375 1037.175781 493.484375 1032.65625 L 493.484375 1024.929688 C 493.484375 1020.414062 489.820312 1016.753906 485.304688 1016.753906 C 480.789062 1016.753906 477.125 1020.414062 477.125 1024.929688 Z M 664.964844 635.347656 L 664.964844 545.230469 L 516.484375 545.230469 L 516.484375 635.347656 Z M 550.734375 487.511719 L 550.734375 528.875 L 630.714844 528.875 L 630.714844 487.511719 Z M 534.375 528.875 L 534.375 487.511719 L 520.027344 487.511719 C 515.511719 487.511719 511.851562 483.847656 511.851562 479.332031 L 511.851562 443.875 C 511.851562 439.359375 515.511719 435.695312 520.027344 435.695312 L 726.136719 435.695312 C 730.652344 435.695312 734.3125 439.359375 734.3125 443.875 L 734.3125 461.605469 C 734.3125 468.738281 731.402344 475.21875 726.710938 479.90625 C 722.019531 484.597656 715.539062 487.511719 708.40625 487.511719 L 647.066406 487.511719 L 647.066406 528.875 L 673.140625 528.875 C 677.65625 528.875 681.320312 532.539062 681.320312 537.054688 L 681.320312 635.726562 C 700.460938 637.582031 717.703125 646.175781 730.617188 659.09375 C 745.265625 673.746094 754.363281 693.960938 754.363281 716.203125 L 754.363281 850.425781 L 793.625 850.425781 L 756.730469 586.992188 C 756.652344 586.625 756.597656 586.25 756.570312 585.863281 L 748.398438 527.5 C 748.28125 526.953125 748.21875 526.382812 748.21875 525.796875 C 748.21875 521.28125 751.882812 517.621094 756.398438 517.621094 L 1064.152344 517.621094 L 1064.152344 517.640625 C 1064.519531 517.640625 1064.894531 517.664062 1065.269531 517.714844 C 1069.730469 518.332031 1072.851562 522.453125 1072.234375 526.917969 L 1063.976562 585.871094 C 1063.949219 586.25 1063.898438 586.621094 1063.820312 586.988281 L 1008.003906 985.550781 L 1008.003906 1097.183594 C 1008.003906 1101.699219 1004.339844 1105.363281 999.824219 1105.363281 L 889.019531 1105.363281 L 889.019531 1121.90625 C 889.019531 1129.617188 885.871094 1136.621094 880.796875 1141.691406 C 875.726562 1146.765625 868.71875 1149.914062 861.011719 1149.914062 L 580.527344 1149.914062 C 572.816406 1149.914062 565.8125 1146.765625 560.742188 1141.691406 C 555.667969 1136.621094 552.519531 1129.617188 552.519531 1121.90625 L 552.519531 1117.257812 L 466.902344 1117.257812 C 455.945312 1117.257812 445.984375 1112.78125 438.773438 1105.566406 C 431.558594 1098.351562 427.078125 1088.394531 427.078125 1077.4375 L 427.078125 716.199219 C 427.078125 693.957031 436.171875 673.742188 450.824219 659.089844 C 463.742188 646.175781 480.980469 637.578125 500.125 635.722656 L 500.125 537.050781 C 500.125 532.535156 503.785156 528.875 508.304688 528.875 Z M 943.804688 722.375 C 935.222656 713.796875 923.371094 708.492188 910.277344 708.492188 C 897.1875 708.492188 885.332031 713.796875 876.753906 722.375 C 868.175781 730.953125 862.867188 742.808594 862.867188 755.902344 C 862.867188 768.992188 868.175781 780.847656 876.753906 789.425781 C 885.332031 798.003906 897.183594 803.308594 910.277344 803.308594 C 923.371094 803.308594 935.222656 798.003906 943.804688 789.425781 C 952.382812 780.847656 957.6875 768.992188 957.6875 755.902344 C 957.6875 742.808594 952.382812 730.953125 943.804688 722.375 Z M 910.277344 692.132812 C 892.671875 692.132812 876.730469 699.273438 865.191406 710.8125 C 853.648438 722.351562 846.511719 738.292969 846.511719 755.902344 C 846.511719 773.507812 853.648438 789.449219 865.191406 800.992188 C 876.730469 812.53125 892.671875 819.667969 910.277344 819.667969 C 927.886719 819.667969 943.828125 812.53125 955.367188 800.992188 C 966.910156 789.449219 974.046875 773.507812 974.046875 755.902344 C 974.046875 738.292969 966.910156 722.351562 955.367188 710.8125 C 943.828125 699.273438 927.886719 692.132812 910.277344 692.132812 Z M 910.277344 692.132812 " fill-opacity="1" fill-rule="evenodd"/></g></svg>