<svg xmlns="http://www.w3.org/2000/svg" xmlns:xlink="http://www.w3.org/1999/xlink" width="2000" zoomAndPan="magnify" viewBox="0 0 1500 1499.999933" height="2000" preserveAspectRatio="xMidYMid meet" version="1.0"><defs><clipPath id="ad7c66913c"><path d="M 240.285156 448 L 1259.535156 448 L 1259.535156 1051.746094 L 240.285156 1051.746094 Z M 240.285156 448 " clip-rule="nonzero"/></clipPath></defs><g clip-path="url(#ad7c66913c)"><path fill="#8e6b69" d="M 1080.554688 456.140625 C 1072.972656 460.714844 1042.386719 478.753906 1012.585938 496.140625 C 982.785156 513.652344 957.296875 528.816406 956.117188 529.863281 C 952.328125 533.128906 953.375 538.621094 960.300781 550.773438 C 963.960938 557.050781 966.835938 562.667969 966.835938 563.324219 C 966.835938 565.285156 944.484375 574.695312 935.46875 576.65625 C 927.492188 578.222656 924.878906 578.222656 912.984375 576.523438 C 894.425781 573.648438 861.617188 566.589844 828.675781 558.09375 C 792.339844 548.816406 791.164062 548.816406 761.886719 558.75 L 739.402344 566.460938 L 729.207031 562.539062 C 713.390625 556.527344 703.980469 554.695312 696.660156 556.265625 C 693.261719 557.050781 676.269531 562.277344 659.015625 568.027344 C 616.40625 582.015625 612.875 582.929688 598.238281 582.800781 C 588.824219 582.667969 583.074219 581.882812 574.578125 579.402344 C 563.730469 576.132812 543.992188 567.636719 542.816406 565.546875 C 542.425781 565.023438 545.429688 559.664062 549.351562 553.652344 C 556.410156 542.410156 557.71875 537.574219 554.839844 533.78125 C 553.925781 532.605469 535.757812 521.105469 514.582031 508.292969 C 493.40625 495.355469 462.820312 476.792969 446.746094 466.992188 C 430.535156 457.058594 416.160156 449.082031 414.589844 449.082031 C 413.023438 449.082031 410.929688 449.867188 409.886719 450.652344 C 408.707031 451.566406 400.867188 464.113281 392.371094 478.492188 C 362.046875 529.863281 326.621094 589.335938 285.710938 657.566406 C 262.96875 695.601562 243.230469 729.0625 241.921875 731.675781 C 239.832031 736.121094 239.832031 736.773438 241.792969 739.648438 C 242.96875 741.347656 246.628906 744.488281 250.15625 746.445312 C 253.554688 748.40625 284.011719 766.835938 317.734375 787.359375 C 372.371094 820.558594 379.300781 824.480469 382.304688 823.433594 C 384.789062 822.519531 388.449219 817.683594 395.636719 805.660156 C 400.996094 796.507812 405.964844 788.929688 406.617188 788.929688 C 407.140625 788.929688 413.675781 792.328125 420.863281 796.378906 C 434.066406 803.699219 442.691406 810.757812 470.925781 836.898438 L 485.433594 850.359375 L 481.773438 857.679688 C 474.714844 871.667969 477.199219 889.3125 487.917969 901.207031 C 495.890625 910.09375 505.957031 914.800781 517.195312 914.929688 C 521.902344 915.0625 527.132812 914.671875 528.960938 914.148438 L 532.230469 913.230469 L 531.835938 923.296875 C 531.183594 936.5 534.582031 945.910156 543.078125 954.667969 C 552.75 964.46875 559.808594 967.347656 574.710938 967.347656 C 584.121094 967.347656 588.171875 966.824219 591.441406 964.992188 L 595.621094 962.640625 L 595.621094 971.660156 C 595.621094 979.109375 596.277344 982.117188 599.542969 988.652344 C 606.863281 1003.03125 619.019531 1011.132812 635.488281 1012.179688 C 642.546875 1012.570312 646.207031 1012.046875 651.304688 1010.089844 L 658.101562 1007.605469 L 658.101562 1015.707031 C 658.101562 1036.230469 674.179688 1052.046875 695.09375 1052.046875 C 706.59375 1052.046875 715.089844 1047.992188 727.246094 1036.753906 C 732.34375 1032.046875 736.917969 1028.125 737.3125 1028.125 C 737.703125 1028.125 740.972656 1029.957031 744.632812 1032.179688 C 771.164062 1048.515625 800.707031 1044.988281 814.5625 1023.8125 C 816.914062 1020.023438 819.527344 1014.664062 820.3125 1011.789062 L 821.621094 1006.558594 L 833.773438 1006.558594 C 844.625 1006.558594 846.847656 1006.167969 853.773438 1002.769531 C 865.800781 996.753906 874.035156 986.820312 878.476562 972.835938 C 879.132812 971.003906 879.914062 970.613281 882.136719 971.527344 C 883.835938 972.050781 891.027344 972.574219 898.214844 972.574219 C 910.632812 972.574219 911.679688 972.3125 919.519531 968.128906 C 933.898438 960.289062 943.179688 947.476562 945.921875 931.269531 L 947.363281 922.90625 L 960.695312 922.90625 C 972.589844 922.90625 974.941406 922.511719 982 919.246094 C 992.195312 914.539062 1002.128906 904.476562 1006.964844 894.148438 C 1013.238281 880.554688 1011.410156 858.726562 1003.042969 848.269531 C 1001.34375 845.917969 1000.820312 844.480469 1001.738281 844.21875 C 1008.273438 841.996094 1032.453125 819.382812 1044.609375 803.960938 C 1048.007812 799.644531 1052.582031 794.679688 1054.675781 792.980469 C 1058.726562 789.710938 1086.566406 774.550781 1088.398438 774.550781 C 1088.917969 774.550781 1094.539062 783.308594 1100.8125 794.15625 C 1106.957031 804.875 1113.230469 814.285156 1114.539062 815.070312 C 1119.246094 817.554688 1109.832031 822.652344 1214.53125 761.480469 C 1257.796875 736.25 1259.625 735.074219 1259.625 730.5 C 1259.625 727.496094 1247.339844 705.011719 1209.042969 637.4375 C 1201.460938 624.234375 1190.21875 604.234375 1183.945312 592.996094 C 1177.671875 581.753906 1161.855469 553.78125 1148.914062 530.777344 C 1135.976562 507.773438 1120.550781 480.191406 1114.539062 469.605469 C 1108.65625 459.015625 1102.644531 449.738281 1101.335938 449.082031 C 1097.15625 446.863281 1094.539062 447.777344 1080.554688 456.140625 Z M 1141.335938 551.035156 C 1157.28125 579.402344 1186.035156 630.507812 1205.25 664.625 C 1224.464844 698.609375 1239.757812 726.972656 1239.105469 727.496094 C 1238.320312 728.277344 1128 793.109375 1122.25 796.246094 C 1121.464844 796.769531 1121.464844 796.902344 1065.652344 700.046875 C 997.554688 582.277344 974.941406 542.671875 974.027344 540.449219 C 973.371094 538.878906 975.726562 536.921875 983.4375 532.476562 C 989.058594 529.339844 1010.363281 516.789062 1030.886719 504.636719 C 1051.40625 492.480469 1074.019531 479.277344 1081.207031 475.09375 L 1094.148438 467.511719 L 1103.167969 483.460938 C 1108.132812 492.21875 1125.257812 522.671875 1141.335938 551.035156 Z M 447.527344 486.859375 C 485.828125 509.992188 536.019531 540.839844 536.671875 541.363281 C 537.195312 541.886719 530.007812 554.042969 494.976562 611.164062 C 481.121094 633.777344 455.109375 676.386719 437.074219 705.925781 C 391.585938 780.5625 379.820312 799.777344 377.992188 801.867188 C 376.554688 803.304688 373.023438 801.605469 357.339844 792.066406 C 347.011719 785.660156 321.003906 769.84375 299.695312 756.902344 C 278.523438 743.964844 261.007812 732.984375 261.007812 732.59375 C 261.007812 731.808594 309.628906 649.589844 368.84375 550.382812 C 390.410156 514.4375 410.015625 481.367188 412.5 476.925781 C 415.113281 472.480469 417.335938 468.691406 417.464844 468.691406 C 417.597656 468.691406 431.191406 476.792969 447.527344 486.859375 Z M 827.238281 574.433594 C 924.226562 598.222656 932.070312 598.875 963.175781 584.105469 C 970.234375 580.707031 976.117188 578.222656 976.378906 578.617188 C 976.640625 578.878906 993.894531 608.808594 1014.808594 645.148438 C 1035.722656 681.484375 1059.117188 722.003906 1066.699219 735.207031 C 1074.410156 748.40625 1080.421875 759.386719 1080.292969 759.519531 C 1080.03125 759.648438 1073.757812 763.046875 1066.175781 767.097656 C 1047.09375 777.292969 1042.648438 780.5625 1035.460938 789.582031 C 1026.046875 801.476562 1007.75 819.644531 997.945312 826.964844 L 989.1875 833.5 L 980.953125 825.789062 C 976.378906 821.605469 960.039062 806.441406 944.617188 792.066406 C 912.332031 762.261719 878.085938 730.371094 871.550781 724.097656 L 866.976562 719.78125 L 875.210938 723.050781 C 898.214844 732.332031 926.449219 732.460938 949.320312 723.3125 C 958.210938 719.78125 960.824219 716.253906 958.734375 710.371094 C 956.902344 705.011719 952.980469 704.488281 942.523438 708.28125 C 921.875 715.601562 905.796875 715.859375 885.144531 709.0625 C 866.320312 702.789062 852.335938 694.164062 811.945312 664.101562 C 801.230469 655.996094 791.035156 648.808594 789.464844 647.890625 C 787.113281 646.714844 779.921875 647.238281 754.171875 650.375 C 736.265625 652.597656 720.449219 654.558594 718.882812 654.949219 C 717.183594 655.34375 712.738281 659.917969 708.425781 665.800781 C 698.230469 679.523438 676.402344 701.089844 667.25 706.449219 C 652.480469 715.078125 644.507812 717.558594 631.566406 717.691406 C 618.628906 717.691406 613.136719 715.730469 609.085938 709.71875 C 607.386719 707.105469 607.257812 705.535156 608.300781 702.789062 C 609.738281 699.128906 666.597656 615.347656 671.695312 609.59375 C 674.179688 606.71875 684.765625 602.667969 729.601562 587.242188 C 787.242188 567.375 788.027344 567.113281 792.601562 566.851562 C 794.300781 566.851562 809.855469 570.25 827.238281 574.433594 Z M 710.648438 573.386719 C 714.828125 574.957031 714.308594 575.21875 690.910156 583.320312 C 677.707031 587.898438 665.421875 592.601562 663.589844 593.910156 C 659.671875 596.785156 659.800781 596.65625 626.601562 644.753906 C 589.480469 698.476562 592.355469 693.511719 592.355469 704.621094 C 592.355469 712.59375 592.878906 714.683594 596.015625 719.390625 C 602.941406 729.847656 621.109375 736.644531 637.1875 734.683594 C 665.550781 731.285156 693.394531 712.460938 717.835938 679.917969 L 725.023438 670.503906 L 752.605469 666.84375 L 780.316406 663.316406 L 783.714844 666.453125 C 838.21875 715.730469 836.652344 714.160156 926.972656 798.207031 C 969.972656 838.074219 989.1875 856.765625 990.757812 860.296875 C 994.546875 868.007812 995.070312 877.941406 992.324219 885.261719 C 988.925781 894.148438 981.085938 901.992188 972.589844 905.257812 C 957.949219 910.617188 949.84375 908.132812 932.070312 892.449219 C 924.878906 886.175781 903.441406 867.351562 884.097656 850.621094 C 855.472656 825.789062 848.414062 820.296875 845.277344 820.296875 C 840.570312 820.296875 836.78125 825.265625 837.957031 829.96875 C 838.480469 832.0625 853.511719 845.917969 880.175781 869.050781 C 903.050781 888.789062 923.574219 906.828125 925.664062 909.179688 C 929.324219 912.972656 929.585938 913.886719 929.585938 923.296875 C 929.453125 935.320312 926.710938 941.726562 918.214844 948.914062 C 912.984375 953.492188 902.921875 957.542969 896.90625 957.542969 C 895.339844 957.542969 891.15625 956.628906 887.496094 955.582031 C 881.875 953.882812 874.296875 948 836.78125 915.714844 C 806.980469 890.097656 791.554688 877.808594 789.59375 877.808594 C 783.582031 877.808594 779.660156 885.128906 783.058594 890.097656 C 784.105469 891.796875 802.796875 908.394531 824.496094 926.957031 L 863.839844 960.679688 L 863.183594 965.777344 C 860.832031 983.554688 839.265625 995.449219 822.273438 988.257812 C 819.660156 987.214844 809.203125 979.371094 799.007812 970.875 C 761.363281 939.375 749.730469 930.09375 747.769531 930.09375 C 744.894531 930.09375 739.402344 936.105469 739.402344 939.375 C 739.402344 942.640625 739.273438 942.511719 777.046875 973.75 C 804.105469 996.363281 804.757812 997.015625 804.757812 1001.722656 C 804.757812 1008.390625 799.789062 1017.667969 794.433594 1021.199219 C 783.976562 1028.257812 772.472656 1027.863281 756.789062 1020.285156 L 748.683594 1016.230469 L 753.128906 1010.347656 C 761.625 999.371094 763.453125 985.121094 758.226562 972.574219 C 753.390625 960.808594 738.097656 949.699219 726.722656 949.699219 C 723.585938 949.699219 721.105469 949.175781 721.105469 948.65625 C 721.105469 948 722.933594 945.910156 725.15625 943.6875 C 727.378906 941.597656 730.777344 936.890625 732.605469 933.363281 C 737.3125 924.605469 737.574219 907.875 733.257812 898.460938 C 729.078125 889.3125 720.972656 881.339844 711.824219 877.15625 C 704.632812 874.019531 702.542969 873.628906 693.132812 874.148438 L 682.542969 874.671875 L 682.542969 862.253906 C 682.542969 847.355469 680.191406 840.949219 670.78125 830.886719 C 662.285156 821.867188 653.917969 818.335938 640.71875 818.46875 C 627.90625 818.46875 619.410156 822.128906 609.085938 832.453125 L 602.160156 839.121094 L 602.160156 832.453125 C 602.160156 817.554688 592.617188 802.652344 578.890625 795.855469 C 572.617188 792.71875 569.871094 792.195312 560.984375 792.328125 C 546.476562 792.328125 542.425781 794.808594 517.457031 818.597656 L 496.675781 838.464844 L 479.8125 822.652344 C 449.097656 794.027344 444.128906 790.105469 425.4375 779.910156 C 419.820312 776.773438 415.242188 774.15625 415.242188 773.894531 C 415.242188 773.636719 421.78125 762.65625 429.882812 749.453125 C 457.464844 704.097656 505.824219 624.886719 518.894531 603.320312 C 526.085938 591.425781 532.359375 581.230469 532.882812 580.707031 C 533.40625 580.054688 537.847656 581.621094 542.816406 584.105469 C 571.832031 598.613281 597.453125 602.796875 621.765625 596.914062 C 627.90625 595.476562 647.644531 589.335938 665.550781 583.191406 C 683.589844 577.046875 700.058594 572.082031 702.28125 571.949219 C 704.503906 571.949219 708.292969 572.605469 710.648438 573.386719 Z M 575.625 813.238281 C 578.371094 815.460938 581.769531 819.515625 583.207031 822.390625 C 586.210938 828.53125 586.34375 838.988281 583.46875 844.742188 C 580.851562 849.578125 535.757812 893.234375 529.875 896.371094 C 524.910156 899.117188 514.84375 899.378906 508.960938 896.894531 C 503.601562 894.671875 497.066406 887.222656 494.976562 881.078125 C 492.886719 874.933594 494.324219 866.175781 497.984375 861.339844 C 502.6875 855.199219 545.300781 814.15625 550.136719 811.148438 C 556.800781 806.964844 568.957031 807.878906 575.625 813.238281 Z M 653.917969 837.945312 C 662.152344 842.78125 666.859375 851.40625 666.859375 861.472656 C 666.730469 866.175781 665.945312 870.882812 664.636719 873.367188 C 661.632812 878.855469 592.746094 945.777344 586.734375 949.046875 C 580.199219 952.574219 569.351562 952.445312 562.03125 948.65625 C 553.402344 944.078125 547.261719 934.015625 547.261719 924.34375 C 547.390625 915.585938 551.441406 910.355469 582.027344 880.945312 C 633.265625 831.667969 629.085938 834.9375 641.242188 834.808594 C 646.597656 834.675781 649.738281 835.460938 653.917969 837.945312 Z M 705.289062 892.058594 C 711.429688 895.195312 718.226562 902.777344 719.273438 907.613281 C 719.664062 909.574219 720.1875 911.925781 720.582031 912.839844 C 720.84375 913.753906 720.449219 917.546875 719.664062 921.207031 C 717.835938 929.308594 716.265625 931.140625 678.363281 967.476562 C 655.226562 989.699219 649.867188 994.273438 645.03125 995.449219 C 627.253906 1000.285156 608.957031 984.207031 611.832031 966.167969 C 613.007812 958.851562 616.535156 953.753906 627.515625 943.558594 C 632.746094 938.71875 646.859375 925.386719 658.886719 914.015625 C 670.910156 902.515625 682.675781 892.449219 684.898438 891.402344 C 690.910156 888.921875 699.535156 889.183594 705.289062 892.058594 Z M 734.304688 968.785156 C 742.800781 973.097656 747.375 987.738281 742.933594 996.234375 C 740.054688 1001.59375 708.03125 1032.960938 703.71875 1034.53125 C 687.378906 1040.804688 671.566406 1027.339844 674.703125 1010.089844 C 675.355469 1006.035156 678.625 1002.375 694.699219 986.558594 C 705.8125 975.84375 715.613281 967.476562 717.835938 966.824219 C 722.410156 965.386719 729.339844 966.167969 734.304688 968.785156 Z M 734.304688 968.785156 " fill-opacity="1" fill-rule="nonzero"/></g><path fill="#8e6b69" d="M 342.699219 718.867188 C 340.609375 719.78125 336.6875 722.917969 334.074219 725.796875 C 323.09375 737.949219 325.445312 757.425781 339.171875 766.835938 C 343.09375 769.453125 345.445312 769.976562 353.808594 769.976562 C 362.699219 769.976562 364.398438 769.582031 369.234375 766.183594 C 377.339844 760.695312 381.914062 750.628906 380.867188 740.957031 C 379.429688 726.710938 368.449219 717.039062 353.941406 717.039062 C 349.890625 717.167969 344.921875 717.953125 342.699219 718.867188 Z M 358.90625 734.683594 C 363.089844 736.773438 364.265625 738.996094 364.265625 744.226562 C 364.136719 749.714844 358.777344 754.941406 353.15625 754.941406 C 349.757812 754.941406 343.355469 747.753906 343.355469 743.832031 C 343.355469 739.910156 349.757812 732.722656 353.15625 732.722656 C 354.332031 732.722656 356.949219 733.636719 358.90625 734.683594 Z M 358.90625 734.683594 " fill-opacity="1" fill-rule="nonzero"/></svg>