<svg xmlns="http://www.w3.org/2000/svg" xmlns:xlink="http://www.w3.org/1999/xlink" width="2000" zoomAndPan="magnify" viewBox="0 0 1500 1499.999933" height="2000" preserveAspectRatio="xMidYMid meet" version="1.0"><path fill="#8e6b69" d="M 477.359375 1055.605469 C 465.171875 1096 448.070312 1140.621094 426.152344 1176.789062 C 415.636719 1194.085938 357.355469 1272.613281 343.890625 1278.511719 C 338.976562 1280.675781 334.0625 1283.03125 328.558594 1282.445312 C 325.117188 1282.050781 304.085938 1262.097656 303.496094 1260.230469 C 295.4375 1235.464844 327.773438 1149.957031 339.566406 1123.226562 C 358.925781 1079.097656 386.445312 1039.683594 418.488281 1004.203125 C 412.984375 961.351562 367.675781 912.800781 375.339844 871.523438 C 376.617188 864.742188 429.984375 752.796875 434.308594 747.488281 C 438.929688 741.886719 448.953125 743.164062 455.246094 739.035156 C 469.59375 729.699219 503.699219 626.503906 515.492188 601.046875 C 571.21875 480.554688 654.265625 338.335938 723.261719 223.839844 C 728.472656 215.289062 766.113281 158.972656 769.554688 156.90625 C 775.941406 153.074219 782.820312 153.46875 789.601562 155.628906 C 885.527344 225.507812 1002.089844 254.109375 1107.648438 304.726562 C 1118.261719 309.835938 1176.839844 340.5 1180.277344 345.316406 C 1204.457031 378.832031 1140.472656 476.917969 1124.648438 512.101562 C 1104.699219 556.328125 1086.320312 602.621094 1067.152344 647.535156 C 1086.121094 726.0625 1109.710938 813.140625 1118.066406 893.441406 C 1119.539062 907.101562 1121.503906 939.730469 1114.230469 949.953125 C 1108.238281 958.304688 989.019531 1002.632812 970.050781 1008.628906 C 880.90625 1036.539062 787.933594 1065.335938 698.59375 1090.988281 C 622.128906 1112.90625 623.210938 1090.398438 557.164062 1072.214844 C 530.921875 1065.042969 502.910156 1063.960938 476.964844 1055.703125 Z M 1048.085938 579.230469 C 1064.304688 541.683594 1087.597656 504.925781 1104.109375 467.679688 C 1114.429688 444.285156 1152.167969 362.910156 1140.179688 343.25 C 1132.21875 330.179688 936.042969 257.941406 904.890625 243.59375 C 864.101562 224.722656 827.246094 197.988281 786.753906 178.628906 C 750.683594 219.808594 730.339844 270.425781 702.820312 316.519531 C 646.503906 410.773438 582.421875 512.101562 534.558594 610.582031 C 518.34375 643.898438 504.777344 681.34375 491.511719 716.039062 C 577.117188 651.859375 683.164062 624.4375 777.21875 574.609375 C 761.59375 548.566406 773.679688 471.902344 729.75 503.746094 C 701.835938 523.992188 703.410156 563.109375 708.421875 593.382812 C 670.777344 570.875 689.945312 485.664062 730.730469 476.425781 C 787.046875 463.648438 785.179688 525.960938 793.4375 565.078125 C 796.777344 568.417969 831.765625 556.917969 835.894531 553.28125 C 843.757812 546.5 838.84375 516.523438 857.125 508.464844 L 871.179688 536.769531 C 896.632812 513.085938 970.148438 479.375 1002.679688 490.28125 C 1014.179688 494.117188 1023.320312 570.285156 1048.085938 579.230469 Z M 496.128906 1022.679688 C 511.953125 1020.125 522.667969 1032.804688 537.3125 1035.851562 C 549.890625 1038.503906 562.960938 1036.046875 576.625 1038.996094 C 593.921875 1042.730469 619.671875 1064.550781 629.796875 1064.058594 C 654.167969 1062.878906 708.816406 1033 735.742188 1024.15625 C 824.199219 995.164062 913.339844 964.300781 1001.992188 936.585938 C 1014.964844 932.554688 1080.421875 919.191406 1083.664062 914.570312 C 1093.296875 900.8125 1070.59375 811.667969 1067.449219 788.671875 C 1057.914062 718.496094 1057.621094 667.390625 1031.28125 598.394531 C 1019.09375 566.453125 996.980469 545.125 991.574219 510.527344 C 941.648438 511.414062 904.691406 546.304688 862.527344 566.058594 C 775.058594 607.042969 679.820312 637.019531 591.859375 677.511719 C 541.046875 700.902344 502.714844 738.9375 449.9375 754.957031 C 448.167969 787.492188 383.300781 864.542969 383.988281 887.542969 C 384.578125 907.691406 406.890625 928.328125 415.242188 945.53125 C 423.597656 962.730469 440.699219 1036.441406 471.65625 1017.277344 C 475.097656 1015.113281 490.429688 969.902344 486.5 966.167969 C 485.417969 965.085938 467.433594 968.429688 455.539062 961.648438 C 404.726562 932.753906 427.332031 866.609375 491.414062 902.1875 C 538.882812 928.527344 500.945312 981.699219 495.835938 1022.683594 Z M 500.945312 928.230469 C 483.941406 910.148438 449.347656 900.320312 444.335938 932.949219 Z M 321.679688 1258.5625 C 328.851562 1259.640625 332.6875 1258.5625 338.484375 1254.136719 C 345.953125 1248.4375 391.949219 1189.171875 399.222656 1178.066406 C 412.492188 1157.722656 455.539062 1072.707031 457.800781 1052.167969 C 459.175781 1038.898438 441.878906 1024.648438 430.378906 1029.5625 C 390.378906 1046.664062 325.019531 1211.582031 321.777344 1258.5625 Z M 321.679688 1258.5625 " fill-opacity="1" fill-rule="nonzero"/><path fill="#8e6b69" d="M 777.90625 684 C 840.613281 670.042969 921.007812 763.609375 885.625 829.554688 C 843.757812 907.789062 735.941406 805.28125 742.527344 738.644531 C 744.394531 719.675781 756.972656 688.617188 777.90625 684 Z M 791.960938 707.292969 C 749.601562 720.167969 773.582031 826.214844 819.578125 833.683594 C 878.253906 843.117188 885.332031 774.320312 854.765625 737.167969 C 843.855469 723.902344 809.257812 702.082031 791.960938 707.292969 Z M 791.960938 707.292969 " fill-opacity="1" fill-rule="nonzero"/><path fill="#8e6b69" d="M 707.242188 740.804688 C 721 755.746094 717.953125 788.570312 708.421875 805.574219 C 782.527344 794.761719 786.164062 898.84375 726.308594 920.171875 C 701.445312 929.019531 675.59375 938.453125 670.679688 904.644531 C 696.332031 903.070312 733.484375 898.15625 740.363281 868.277344 C 755.992188 800.167969 693.285156 840.957031 689.847656 838.5 C 688.863281 837.714844 676.183594 818.746094 676.183594 817.46875 C 676.183594 813.832031 707.144531 768.128906 694.171875 748.964844 C 673.335938 746.996094 630.089844 748.277344 642.277344 777.269531 C 602.472656 767.734375 636.476562 735.992188 659.871094 731.175781 C 672.746094 728.519531 698.101562 731.078125 707.046875 740.707031 Z M 707.242188 740.804688 " fill-opacity="1" fill-rule="nonzero"/><path fill="#8e6b69" d="M 967.886719 616.96875 L 932.507812 848.03125 L 915.996094 826.804688 C 922.972656 806.558594 919.042969 786.3125 921.300781 766.164062 C 924.347656 739.527344 942.53125 639.671875 953.636719 620.113281 C 957.273438 613.726562 962.089844 617.65625 967.886719 616.96875 Z M 967.886719 616.96875 " fill-opacity="1" fill-rule="nonzero"/><path fill="#8e6b69" d="M 617.609375 830.242188 C 627.4375 828.277344 641.589844 826.902344 642.375 840.957031 C 618.589844 857.960938 574.167969 895.40625 552.839844 859.925781 C 552.839844 855.992188 610.136719 831.71875 617.609375 830.242188 Z M 617.609375 830.242188 " fill-opacity="1" fill-rule="nonzero"/><path fill="#8e6b69" d="M 980.664062 778.351562 C 1035.015625 762.035156 1025.875 835.453125 985.480469 823.660156 C 966.121094 817.957031 959.535156 784.640625 980.664062 778.351562 Z M 1001.007812 796.238281 L 982.140625 796.238281 C 978.207031 818.644531 996.683594 815.304688 1001.007812 796.238281 Z M 1001.007812 796.238281 " fill-opacity="1" fill-rule="nonzero"/><path fill="#8e6b69" d="M 924.839844 650.582031 C 936.929688 669.355469 910.6875 697.265625 881.300781 677.609375 C 839.824219 649.992188 912.261719 631.121094 924.839844 650.582031 Z M 911.375 659.429688 C 900.761719 657.660156 891.621094 663.652344 887.789062 673.480469 C 898.402344 675.25 907.542969 669.257812 911.375 659.429688 Z M 911.375 659.429688 " fill-opacity="1" fill-rule="nonzero"/><path fill="#8e6b69" d="M 914.421875 415.6875 C 925.527344 427.578125 936.929688 451.363281 934.867188 467.875 C 927.492188 526.253906 778.496094 500.996094 776.238281 425.121094 C 774.171875 355.144531 883.070312 382.074219 914.421875 415.6875 Z M 840.613281 470.625 C 845.527344 477.996094 896.730469 482.714844 901.449219 474.949219 C 908.625 462.960938 894.667969 429.640625 883.070312 421.191406 C 871.472656 412.738281 821.054688 404.679688 809.652344 413.71875 " fill-opacity="1" fill-rule="nonzero"/><path fill="#8e6b69" d="M 913.046875 351.113281 C 927.886719 366.742188 952.261719 381.289062 965.332031 400.253906 C 969.265625 405.957031 984.890625 429.9375 970.246094 432.984375 C 964.839844 434.066406 916.878906 380.992188 908.917969 371.753906 C 899.582031 360.941406 858.007812 311.605469 854.765625 303.25 C 850.636719 292.636719 867.542969 295.09375 873.535156 298.632812 C 876.878906 300.597656 904.496094 342.367188 912.949219 351.210938 Z M 913.046875 351.113281 " fill-opacity="1" fill-rule="nonzero"/><path fill="#8e6b69" d="M 985.285156 334.601562 C 1000.125 333.421875 1011.328125 355.929688 998.355469 371.359375 C 975.257812 398.878906 945.675781 337.847656 985.285156 334.601562 Z M 985.285156 334.601562 " fill-opacity="1" fill-rule="nonzero"/><path fill="#8e6b69" d="M 839.433594 346.988281 C 828.71875 358.191406 812.996094 346.789062 812.40625 331.164062 C 811.226562 296.765625 862.824219 322.515625 839.433594 346.988281 Z M 839.433594 346.988281 " fill-opacity="1" fill-rule="nonzero"/></svg>