<?xml version="1.0" encoding="UTF-8"?>
<svg xmlns="http://www.w3.org/2000/svg" width="635" height="680" viewBox="-56 -60 747 800">
  <title>Skin face icon vector trace small</title>
  <path d="M 369.0 511.0 L 366.0 514.0 L 366.0 519.0 L 369.0 522.0 L 373.0 522.0 L 375.0 521.0 L 375.0 520.0 L 377.0 518.0 L 377.0 515.0 L 374.0 511.0 Z
M 173.0 499.0 L 171.0 501.0 L 167.0 509.0 L 159.0 516.0 L 154.0 518.0 L 152.0 520.0 L 152.0 524.0 L 154.0 526.0 L 159.0 528.0 L 162.0 531.0 L 163.0 531.0 L 169.0 538.0 L 171.0 543.0 L 173.0 545.0 L 177.0 545.0 L 179.0 543.0 L 181.0 538.0 L 185.0 534.0 L 185.0 533.0 L 191.0 528.0 L 196.0 526.0 L 198.0 524.0 L 198.0 520.0 L 196.0 518.0 L 191.0 516.0 L 188.0 513.0 L 187.0 513.0 L 182.0 507.0 L 179.0 501.0 L 177.0 499.0 Z
M 174.0 514.0 L 176.0 514.0 L 177.0 516.0 L 184.0 522.0 L 182.0 523.0 L 175.0 530.0 L 174.0 530.0 L 173.0 528.0 L 167.0 523.0 L 167.0 521.0 L 169.0 520.0 Z
M 360.0 495.0 L 359.0 496.0 L 359.0 498.0 L 361.0 500.0 L 363.0 500.0 L 364.0 499.0 L 364.0 496.0 L 363.0 495.0 Z
M 386.0 493.0 L 384.0 497.0 L 385.0 500.0 L 387.0 502.0 L 392.0 502.0 L 395.0 498.0 L 394.0 495.0 L 390.0 492.0 Z
M 383.0 475.0 L 380.0 473.0 L 377.0 473.0 L 372.0 476.0 L 370.0 476.0 L 367.0 478.0 L 364.0 478.0 L 360.0 480.0 L 356.0 480.0 L 355.0 481.0 L 345.0 481.0 L 343.0 482.0 L 342.0 484.0 L 342.0 488.0 L 344.0 490.0 L 356.0 490.0 L 357.0 489.0 L 361.0 489.0 L 362.0 488.0 L 369.0 487.0 L 372.0 485.0 L 377.0 484.0 L 379.0 482.0 L 382.0 481.0 L 383.0 480.0 Z
M 415.0 461.0 L 413.0 464.0 L 414.0 468.0 L 416.0 470.0 L 421.0 470.0 L 424.0 467.0 L 424.0 464.0 L 423.0 462.0 L 420.0 460.0 L 417.0 460.0 Z
M 416.0 440.0 L 413.0 441.0 L 412.0 443.0 L 412.0 445.0 L 414.0 447.0 L 418.0 446.0 L 418.0 442.0 Z
M 431.0 425.0 L 427.0 428.0 L 427.0 432.0 L 430.0 435.0 L 433.0 435.0 L 435.0 434.0 L 436.0 432.0 L 436.0 428.0 L 434.0 426.0 Z
M 361.0 424.0 L 360.0 422.0 L 358.0 421.0 L 355.0 421.0 L 351.0 423.0 L 346.0 423.0 L 342.0 426.0 L 342.0 430.0 L 344.0 432.0 L 354.0 432.0 L 360.0 429.0 L 361.0 427.0 Z
M 404.0 419.0 L 402.0 419.0 L 399.0 421.0 L 399.0 426.0 L 402.0 428.0 L 405.0 427.0 L 407.0 425.0 L 407.0 422.0 L 406.0 420.0 Z
M 106.0 410.0 L 104.0 411.0 L 102.0 416.0 L 97.0 422.0 L 96.0 422.0 L 93.0 425.0 L 91.0 425.0 L 89.0 427.0 L 88.0 427.0 L 87.0 431.0 L 89.0 434.0 L 94.0 436.0 L 102.0 444.0 L 102.0 446.0 L 105.0 450.0 L 109.0 450.0 L 111.0 449.0 L 113.0 444.0 L 118.0 438.0 L 119.0 438.0 L 122.0 435.0 L 126.0 434.0 L 127.0 432.0 L 127.0 428.0 L 125.0 426.0 L 119.0 423.0 L 115.0 419.0 L 112.0 413.0 L 109.0 410.0 Z
M 107.0 424.0 L 114.0 430.0 L 107.0 436.0 L 106.0 434.0 L 105.0 434.0 L 101.0 430.0 L 103.0 429.0 Z
M 431.0 403.0 L 429.0 404.0 L 429.0 409.0 L 431.0 411.0 L 433.0 411.0 L 436.0 409.0 L 436.0 405.0 L 434.0 403.0 Z
M 427.0 363.0 L 425.0 361.0 L 420.0 361.0 L 415.0 364.0 L 412.0 364.0 L 411.0 365.0 L 405.0 365.0 L 404.0 366.0 L 396.0 365.0 L 395.0 364.0 L 388.0 364.0 L 386.0 366.0 L 386.0 370.0 L 388.0 372.0 L 392.0 373.0 L 393.0 374.0 L 400.0 374.0 L 401.0 375.0 L 405.0 375.0 L 406.0 374.0 L 413.0 374.0 L 414.0 373.0 L 417.0 373.0 L 420.0 371.0 L 424.0 370.0 L 427.0 367.0 Z
M 248.0 364.0 L 248.0 366.0 L 250.0 369.0 L 254.0 371.0 L 256.0 371.0 L 259.0 373.0 L 262.0 373.0 L 263.0 374.0 L 269.0 374.0 L 270.0 375.0 L 275.0 375.0 L 276.0 374.0 L 282.0 374.0 L 283.0 373.0 L 286.0 373.0 L 288.0 371.0 L 289.0 371.0 L 290.0 369.0 L 290.0 367.0 L 288.0 364.0 L 281.0 364.0 L 280.0 365.0 L 275.0 365.0 L 274.0 366.0 L 271.0 366.0 L 270.0 365.0 L 265.0 365.0 L 264.0 364.0 L 261.0 364.0 L 256.0 361.0 L 251.0 361.0 L 249.0 362.0 Z
M 373.0 333.0 L 374.0 336.0 L 376.0 338.0 L 381.0 338.0 L 382.0 337.0 L 386.0 337.0 L 387.0 336.0 L 393.0 336.0 L 394.0 335.0 L 400.0 335.0 L 401.0 334.0 L 412.0 333.0 L 413.0 334.0 L 416.0 334.0 L 419.0 336.0 L 421.0 336.0 L 426.0 339.0 L 428.0 339.0 L 430.0 341.0 L 434.0 342.0 L 435.0 343.0 L 438.0 342.0 L 440.0 339.0 L 440.0 337.0 L 438.0 334.0 L 428.0 329.0 L 426.0 329.0 L 421.0 326.0 L 418.0 326.0 L 417.0 325.0 L 414.0 325.0 L 413.0 324.0 L 406.0 324.0 L 405.0 325.0 L 400.0 325.0 L 399.0 326.0 L 391.0 326.0 L 390.0 327.0 L 386.0 327.0 L 385.0 328.0 L 376.0 329.0 Z
M 236.0 340.0 L 237.0 342.0 L 241.0 343.0 L 250.0 338.0 L 252.0 338.0 L 254.0 336.0 L 256.0 336.0 L 263.0 333.0 L 269.0 333.0 L 270.0 334.0 L 275.0 334.0 L 276.0 335.0 L 289.0 336.0 L 290.0 337.0 L 293.0 337.0 L 294.0 338.0 L 300.0 338.0 L 302.0 336.0 L 302.0 331.0 L 300.0 329.0 L 296.0 329.0 L 295.0 328.0 L 291.0 328.0 L 290.0 327.0 L 277.0 326.0 L 276.0 325.0 L 270.0 325.0 L 269.0 324.0 L 262.0 324.0 L 258.0 326.0 L 252.0 327.0 L 243.0 332.0 L 241.0 332.0 L 236.0 336.0 Z
M 362.0 312.0 L 359.0 314.0 L 359.0 318.0 L 361.0 320.0 L 364.0 320.0 L 366.0 318.0 L 366.0 314.0 L 364.0 312.0 Z
M 394.0 304.0 L 391.0 307.0 L 391.0 313.0 L 394.0 316.0 L 399.0 316.0 L 401.0 315.0 L 401.0 314.0 L 403.0 312.0 L 403.0 308.0 L 401.0 306.0 L 401.0 305.0 L 399.0 304.0 Z
M 427.0 302.0 L 425.0 304.0 L 425.0 306.0 L 427.0 309.0 L 430.0 309.0 L 432.0 307.0 L 432.0 303.0 L 430.0 302.0 Z
M 409.0 285.0 L 407.0 286.0 L 405.0 289.0 L 407.0 293.0 L 411.0 293.0 L 413.0 291.0 L 413.0 288.0 Z
M 375.0 284.0 L 372.0 288.0 L 372.0 291.0 L 373.0 293.0 L 375.0 295.0 L 380.0 295.0 L 382.0 294.0 L 383.0 292.0 L 383.0 286.0 L 380.0 284.0 Z
M 136.0 279.0 L 133.0 282.0 L 129.0 290.0 L 122.0 297.0 L 114.0 301.0 L 112.0 303.0 L 111.0 306.0 L 113.0 309.0 L 121.0 313.0 L 130.0 322.0 L 134.0 330.0 L 138.0 332.0 L 142.0 329.0 L 144.0 324.0 L 153.0 314.0 L 154.0 314.0 L 159.0 310.0 L 161.0 310.0 L 164.0 307.0 L 164.0 304.0 L 161.0 301.0 L 158.0 300.0 L 152.0 295.0 L 151.0 295.0 L 147.0 291.0 L 147.0 290.0 L 144.0 287.0 L 141.0 280.0 L 139.0 279.0 Z
M 138.0 294.0 L 140.0 296.0 L 140.0 297.0 L 149.0 305.0 L 139.0 315.0 L 138.0 317.0 L 134.0 313.0 L 134.0 312.0 L 126.0 305.0 L 128.0 304.0 Z
M 345.0 103.0 L 342.0 105.0 L 342.0 109.0 L 346.0 112.0 L 356.0 112.0 L 357.0 113.0 L 368.0 114.0 L 371.0 116.0 L 373.0 116.0 L 379.0 119.0 L 381.0 119.0 L 392.0 126.0 L 398.0 132.0 L 398.0 133.0 L 403.0 139.0 L 404.0 145.0 L 405.0 146.0 L 405.0 149.0 L 404.0 150.0 L 401.0 148.0 L 398.0 148.0 L 395.0 146.0 L 389.0 145.0 L 382.0 142.0 L 377.0 142.0 L 376.0 141.0 L 373.0 141.0 L 372.0 140.0 L 367.0 140.0 L 366.0 139.0 L 353.0 139.0 L 352.0 138.0 L 346.0 138.0 L 342.0 141.0 L 342.0 145.0 L 344.0 147.0 L 349.0 147.0 L 350.0 148.0 L 363.0 148.0 L 364.0 149.0 L 371.0 149.0 L 372.0 150.0 L 375.0 150.0 L 376.0 151.0 L 379.0 151.0 L 380.0 152.0 L 384.0 152.0 L 385.0 153.0 L 396.0 156.0 L 399.0 158.0 L 401.0 158.0 L 417.0 166.0 L 419.0 168.0 L 422.0 169.0 L 424.0 171.0 L 431.0 175.0 L 434.0 178.0 L 435.0 178.0 L 450.0 192.0 L 450.0 193.0 L 454.0 197.0 L 456.0 201.0 L 459.0 204.0 L 470.0 226.0 L 470.0 228.0 L 473.0 235.0 L 473.0 238.0 L 475.0 242.0 L 476.0 250.0 L 477.0 251.0 L 477.0 255.0 L 478.0 256.0 L 478.0 261.0 L 479.0 262.0 L 479.0 278.0 L 480.0 279.0 L 480.0 287.0 L 479.0 288.0 L 479.0 303.0 L 478.0 304.0 L 478.0 308.0 L 477.0 309.0 L 476.0 318.0 L 475.0 319.0 L 474.0 318.0 L 474.0 316.0 L 468.0 304.0 L 465.0 301.0 L 462.0 296.0 L 457.0 291.0 L 456.0 291.0 L 451.0 286.0 L 448.0 285.0 L 441.0 280.0 L 437.0 279.0 L 435.0 277.0 L 426.0 273.0 L 424.0 271.0 L 416.0 267.0 L 413.0 264.0 L 405.0 259.0 L 395.0 249.0 L 395.0 248.0 L 390.0 242.0 L 387.0 236.0 L 386.0 230.0 L 385.0 229.0 L 385.0 225.0 L 384.0 224.0 L 384.0 220.0 L 382.0 218.0 L 377.0 218.0 L 376.0 219.0 L 374.0 228.0 L 368.0 238.0 L 356.0 249.0 L 355.0 249.0 L 347.0 255.0 L 344.0 256.0 L 342.0 258.0 L 342.0 262.0 L 345.0 265.0 L 348.0 265.0 L 350.0 263.0 L 353.0 262.0 L 355.0 260.0 L 362.0 256.0 L 367.0 251.0 L 368.0 251.0 L 378.0 240.0 L 379.0 240.0 L 380.0 241.0 L 380.0 243.0 L 382.0 245.0 L 383.0 248.0 L 388.0 254.0 L 388.0 255.0 L 398.0 265.0 L 399.0 265.0 L 403.0 269.0 L 407.0 271.0 L 410.0 274.0 L 413.0 275.0 L 420.0 280.0 L 427.0 283.0 L 429.0 285.0 L 440.0 290.0 L 452.0 299.0 L 452.0 300.0 L 461.0 310.0 L 465.0 318.0 L 465.0 320.0 L 467.0 323.0 L 468.0 330.0 L 469.0 331.0 L 470.0 340.0 L 474.0 343.0 L 475.0 342.0 L 477.0 342.0 L 478.0 340.0 L 483.0 336.0 L 487.0 336.0 L 489.0 337.0 L 493.0 342.0 L 493.0 355.0 L 492.0 356.0 L 492.0 360.0 L 491.0 361.0 L 490.0 367.0 L 488.0 370.0 L 488.0 372.0 L 486.0 374.0 L 483.0 380.0 L 473.0 390.0 L 465.0 394.0 L 463.0 397.0 L 463.0 413.0 L 462.0 414.0 L 462.0 421.0 L 461.0 422.0 L 461.0 427.0 L 459.0 431.0 L 458.0 438.0 L 456.0 441.0 L 455.0 446.0 L 453.0 449.0 L 452.0 453.0 L 450.0 455.0 L 449.0 459.0 L 447.0 461.0 L 443.0 469.0 L 435.0 479.0 L 435.0 480.0 L 411.0 505.0 L 410.0 505.0 L 405.0 510.0 L 404.0 510.0 L 389.0 522.0 L 386.0 523.0 L 373.0 532.0 L 369.0 533.0 L 364.0 536.0 L 356.0 537.0 L 355.0 538.0 L 347.0 538.0 L 346.0 539.0 L 344.0 539.0 L 342.0 541.0 L 342.0 545.0 L 346.0 548.0 L 348.0 547.0 L 356.0 547.0 L 357.0 546.0 L 362.0 546.0 L 363.0 545.0 L 371.0 543.0 L 379.0 539.0 L 381.0 537.0 L 386.0 535.0 L 388.0 539.0 L 389.0 546.0 L 390.0 547.0 L 392.0 555.0 L 394.0 558.0 L 394.0 560.0 L 401.0 573.0 L 407.0 579.0 L 415.0 584.0 L 417.0 584.0 L 424.0 587.0 L 429.0 587.0 L 430.0 588.0 L 434.0 588.0 L 435.0 589.0 L 450.0 590.0 L 451.0 591.0 L 460.0 592.0 L 461.0 593.0 L 464.0 593.0 L 468.0 595.0 L 474.0 596.0 L 479.0 599.0 L 482.0 599.0 L 485.0 597.0 L 486.0 594.0 L 483.0 590.0 L 479.0 589.0 L 476.0 587.0 L 470.0 586.0 L 469.0 585.0 L 463.0 584.0 L 462.0 583.0 L 452.0 582.0 L 451.0 581.0 L 446.0 581.0 L 445.0 580.0 L 436.0 580.0 L 435.0 579.0 L 426.0 578.0 L 425.0 577.0 L 422.0 577.0 L 413.0 572.0 L 409.0 568.0 L 409.0 567.0 L 405.0 562.0 L 404.0 558.0 L 401.0 553.0 L 401.0 551.0 L 398.0 544.0 L 398.0 541.0 L 396.0 537.0 L 395.0 529.0 L 402.0 523.0 L 406.0 521.0 L 415.0 513.0 L 416.0 513.0 L 439.0 490.0 L 439.0 489.0 L 442.0 486.0 L 442.0 485.0 L 452.0 472.0 L 462.0 453.0 L 462.0 451.0 L 465.0 446.0 L 466.0 440.0 L 468.0 437.0 L 468.0 433.0 L 469.0 432.0 L 470.0 424.0 L 471.0 423.0 L 471.0 415.0 L 472.0 414.0 L 472.0 401.0 L 479.0 397.0 L 485.0 391.0 L 486.0 391.0 L 486.0 390.0 L 491.0 385.0 L 492.0 382.0 L 494.0 380.0 L 497.0 374.0 L 497.0 372.0 L 500.0 366.0 L 500.0 362.0 L 501.0 361.0 L 501.0 358.0 L 502.0 357.0 L 502.0 340.0 L 500.0 337.0 L 500.0 335.0 L 494.0 329.0 L 492.0 329.0 L 488.0 327.0 L 484.0 327.0 L 483.0 326.0 L 483.0 324.0 L 485.0 320.0 L 485.0 317.0 L 486.0 316.0 L 486.0 310.0 L 487.0 309.0 L 487.0 305.0 L 488.0 304.0 L 488.0 293.0 L 489.0 292.0 L 489.0 273.0 L 488.0 272.0 L 488.0 261.0 L 487.0 260.0 L 487.0 255.0 L 486.0 254.0 L 485.0 244.0 L 483.0 240.0 L 483.0 236.0 L 482.0 235.0 L 479.0 224.0 L 477.0 221.0 L 477.0 219.0 L 474.0 214.0 L 474.0 212.0 L 462.0 192.0 L 458.0 188.0 L 458.0 187.0 L 441.0 171.0 L 433.0 166.0 L 430.0 163.0 L 427.0 162.0 L 425.0 160.0 L 422.0 159.0 L 420.0 157.0 L 414.0 154.0 L 414.0 144.0 L 413.0 143.0 L 412.0 137.0 L 406.0 127.0 L 398.0 119.0 L 397.0 119.0 L 391.0 114.0 L 376.0 107.0 L 373.0 107.0 L 372.0 106.0 L 366.0 105.0 L 365.0 104.0 L 358.0 104.0 L 357.0 103.0 Z
M 328.0 53.0 L 325.0 55.0 L 325.0 102.0 L 324.0 103.0 L 319.0 103.0 L 318.0 104.0 L 311.0 104.0 L 310.0 105.0 L 307.0 105.0 L 303.0 107.0 L 297.0 108.0 L 285.0 114.0 L 279.0 119.0 L 278.0 119.0 L 271.0 126.0 L 271.0 127.0 L 266.0 133.0 L 266.0 135.0 L 263.0 140.0 L 263.0 145.0 L 262.0 146.0 L 262.0 154.0 L 259.0 157.0 L 257.0 157.0 L 255.0 159.0 L 252.0 160.0 L 250.0 162.0 L 240.0 168.0 L 230.0 177.0 L 229.0 177.0 L 219.0 187.0 L 219.0 188.0 L 213.0 195.0 L 213.0 196.0 L 209.0 201.0 L 207.0 206.0 L 205.0 208.0 L 201.0 216.0 L 201.0 218.0 L 199.0 221.0 L 199.0 223.0 L 197.0 226.0 L 197.0 228.0 L 196.0 229.0 L 196.0 231.0 L 193.0 238.0 L 193.0 242.0 L 192.0 243.0 L 192.0 246.0 L 191.0 247.0 L 191.0 250.0 L 190.0 251.0 L 189.0 263.0 L 188.0 264.0 L 188.0 273.0 L 187.0 274.0 L 187.0 295.0 L 188.0 296.0 L 188.0 304.0 L 189.0 305.0 L 189.0 310.0 L 190.0 311.0 L 190.0 317.0 L 191.0 318.0 L 191.0 321.0 L 192.0 322.0 L 193.0 326.0 L 192.0 327.0 L 188.0 327.0 L 187.0 328.0 L 182.0 329.0 L 179.0 332.0 L 178.0 332.0 L 178.0 333.0 L 175.0 336.0 L 175.0 338.0 L 174.0 339.0 L 174.0 342.0 L 173.0 343.0 L 173.0 351.0 L 174.0 352.0 L 175.0 364.0 L 178.0 370.0 L 179.0 375.0 L 181.0 377.0 L 181.0 379.0 L 183.0 381.0 L 184.0 384.0 L 193.0 394.0 L 194.0 394.0 L 204.0 402.0 L 204.0 419.0 L 205.0 420.0 L 205.0 425.0 L 206.0 426.0 L 206.0 429.0 L 207.0 430.0 L 208.0 438.0 L 210.0 441.0 L 210.0 444.0 L 212.0 447.0 L 213.0 452.0 L 223.0 471.0 L 225.0 473.0 L 229.0 480.0 L 232.0 483.0 L 232.0 484.0 L 242.0 495.0 L 242.0 496.0 L 261.0 514.0 L 262.0 514.0 L 267.0 519.0 L 268.0 519.0 L 281.0 529.0 L 281.0 531.0 L 280.0 532.0 L 280.0 536.0 L 277.0 543.0 L 277.0 546.0 L 276.0 547.0 L 274.0 555.0 L 268.0 566.0 L 265.0 569.0 L 265.0 570.0 L 260.0 574.0 L 256.0 576.0 L 250.0 577.0 L 249.0 578.0 L 246.0 578.0 L 245.0 579.0 L 241.0 579.0 L 240.0 580.0 L 231.0 580.0 L 230.0 581.0 L 225.0 581.0 L 224.0 582.0 L 220.0 582.0 L 219.0 583.0 L 213.0 583.0 L 206.0 586.0 L 203.0 586.0 L 202.0 587.0 L 200.0 587.0 L 197.0 589.0 L 193.0 590.0 L 190.0 593.0 L 190.0 596.0 L 193.0 599.0 L 196.0 599.0 L 197.0 598.0 L 199.0 598.0 L 202.0 596.0 L 204.0 596.0 L 211.0 593.0 L 215.0 593.0 L 216.0 592.0 L 220.0 592.0 L 221.0 591.0 L 225.0 591.0 L 226.0 590.0 L 234.0 590.0 L 235.0 589.0 L 241.0 589.0 L 242.0 588.0 L 246.0 588.0 L 247.0 587.0 L 252.0 587.0 L 266.0 581.0 L 273.0 575.0 L 273.0 574.0 L 278.0 568.0 L 278.0 566.0 L 280.0 564.0 L 281.0 560.0 L 283.0 557.0 L 283.0 555.0 L 284.0 554.0 L 284.0 552.0 L 287.0 545.0 L 287.0 541.0 L 290.0 535.0 L 296.0 538.0 L 298.0 540.0 L 300.0 540.0 L 310.0 545.0 L 312.0 545.0 L 313.0 546.0 L 318.0 546.0 L 319.0 547.0 L 324.0 547.0 L 325.0 548.0 L 325.0 647.0 L 328.0 649.0 L 330.0 649.0 L 334.0 646.0 L 334.0 56.0 L 331.0 53.0 Z
M 322.0 269.0 L 324.0 269.0 L 325.0 270.0 L 325.0 421.0 L 324.0 422.0 L 322.0 422.0 L 321.0 421.0 L 317.0 421.0 L 315.0 423.0 L 315.0 428.0 L 319.0 431.0 L 321.0 431.0 L 325.0 433.0 L 325.0 480.0 L 324.0 481.0 L 321.0 481.0 L 320.0 480.0 L 312.0 479.0 L 311.0 478.0 L 306.0 477.0 L 299.0 473.0 L 295.0 473.0 L 293.0 475.0 L 292.0 478.0 L 295.0 482.0 L 297.0 482.0 L 299.0 484.0 L 301.0 484.0 L 304.0 486.0 L 306.0 486.0 L 310.0 488.0 L 318.0 489.0 L 319.0 490.0 L 324.0 490.0 L 325.0 491.0 L 325.0 537.0 L 324.0 538.0 L 320.0 538.0 L 319.0 537.0 L 316.0 537.0 L 315.0 536.0 L 312.0 536.0 L 309.0 534.0 L 307.0 534.0 L 301.0 531.0 L 299.0 529.0 L 296.0 528.0 L 294.0 526.0 L 284.0 520.0 L 281.0 517.0 L 280.0 517.0 L 273.0 511.0 L 272.0 511.0 L 268.0 507.0 L 267.0 507.0 L 258.0 498.0 L 257.0 498.0 L 255.0 496.0 L 255.0 495.0 L 254.0 495.0 L 252.0 493.0 L 252.0 492.0 L 243.0 483.0 L 243.0 482.0 L 232.0 468.0 L 220.0 445.0 L 220.0 442.0 L 218.0 439.0 L 217.0 433.0 L 216.0 432.0 L 216.0 429.0 L 215.0 428.0 L 215.0 425.0 L 214.0 424.0 L 214.0 417.0 L 213.0 416.0 L 213.0 397.0 L 211.0 395.0 L 211.0 394.0 L 207.0 393.0 L 204.0 390.0 L 199.0 387.0 L 191.0 378.0 L 187.0 370.0 L 187.0 368.0 L 185.0 365.0 L 184.0 357.0 L 183.0 356.0 L 183.0 350.0 L 182.0 349.0 L 182.0 344.0 L 183.0 343.0 L 183.0 341.0 L 189.0 336.0 L 193.0 336.0 L 199.0 342.0 L 201.0 342.0 L 202.0 343.0 L 204.0 342.0 L 211.0 334.0 L 211.0 333.0 L 217.0 327.0 L 217.0 326.0 L 225.0 318.0 L 226.0 318.0 L 238.0 307.0 L 239.0 307.0 L 247.0 301.0 L 250.0 300.0 L 252.0 298.0 L 264.0 292.0 L 267.0 292.0 L 270.0 290.0 L 278.0 288.0 L 281.0 286.0 L 284.0 286.0 L 287.0 284.0 L 292.0 283.0 L 297.0 280.0 L 300.0 280.0 L 318.0 271.0 L 320.0 271.0 Z
M 324.0 148.0 L 325.0 149.0 L 325.0 257.0 L 323.0 259.0 L 311.0 265.0 L 309.0 265.0 L 307.0 267.0 L 305.0 267.0 L 300.0 270.0 L 295.0 271.0 L 290.0 274.0 L 288.0 274.0 L 285.0 276.0 L 282.0 276.0 L 279.0 278.0 L 271.0 280.0 L 268.0 282.0 L 265.0 282.0 L 262.0 284.0 L 255.0 286.0 L 253.0 288.0 L 249.0 289.0 L 247.0 291.0 L 244.0 292.0 L 242.0 294.0 L 236.0 297.0 L 233.0 300.0 L 228.0 303.0 L 223.0 308.0 L 222.0 308.0 L 203.0 328.0 L 202.0 327.0 L 202.0 324.0 L 200.0 320.0 L 199.0 310.0 L 198.0 309.0 L 198.0 304.0 L 197.0 303.0 L 197.0 291.0 L 196.0 290.0 L 197.0 265.0 L 198.0 264.0 L 198.0 259.0 L 199.0 258.0 L 199.0 252.0 L 200.0 251.0 L 200.0 248.0 L 202.0 244.0 L 202.0 240.0 L 203.0 239.0 L 206.0 228.0 L 211.0 218.0 L 211.0 216.0 L 213.0 214.0 L 215.0 209.0 L 217.0 207.0 L 220.0 201.0 L 223.0 198.0 L 226.0 193.0 L 228.0 192.0 L 228.0 191.0 L 235.0 184.0 L 236.0 184.0 L 246.0 175.0 L 247.0 175.0 L 255.0 169.0 L 258.0 168.0 L 260.0 166.0 L 276.0 158.0 L 278.0 158.0 L 281.0 156.0 L 283.0 156.0 L 284.0 155.0 L 286.0 155.0 L 293.0 152.0 L 301.0 151.0 L 302.0 150.0 L 305.0 150.0 L 306.0 149.0 L 313.0 149.0 L 314.0 148.0 Z
M 325.0 113.0 L 325.0 137.0 L 323.0 139.0 L 311.0 139.0 L 310.0 140.0 L 305.0 140.0 L 304.0 141.0 L 301.0 141.0 L 300.0 142.0 L 295.0 142.0 L 288.0 145.0 L 285.0 145.0 L 279.0 148.0 L 276.0 148.0 L 273.0 150.0 L 271.0 149.0 L 272.0 143.0 L 275.0 136.0 L 285.0 125.0 L 299.0 117.0 L 301.0 117.0 L 308.0 114.0 L 319.0 113.0 L 320.0 112.0 L 324.0 112.0 Z" fill="#9b716f" fill-rule="evenodd"/>
</svg>
