<svg xmlns="http://www.w3.org/2000/svg" xmlns:xlink="http://www.w3.org/1999/xlink" width="2000" zoomAndPan="magnify" viewBox="0 0 1500 1499.999933" height="2000" preserveAspectRatio="xMidYMid meet" version="1.0"><path fill="#8e6b69" d="M 470.46875 566.34375 C 477.9375 566.34375 483.972656 560.296875 483.972656 552.84375 C 483.972656 481.933594 583.5625 377.292969 673.023438 377.292969 L 713.535156 377.292969 C 774.585938 377.292969 832.933594 400.007812 877.847656 441.261719 C 883.34375 446.296875 891.878906 445.945312 896.929688 440.4375 C 901.980469 434.941406 901.613281 426.394531 896.117188 421.355469 C 846.195312 375.527344 781.351562 350.289062 713.535156 350.289062 L 673.023438 350.289062 C 574.082031 350.289062 456.964844 460.085938 456.964844 552.84375 C 456.964844 560.296875 463.003906 566.34375 470.46875 566.34375 Z M 470.46875 566.34375 " fill-opacity="1" fill-rule="nonzero"/><path fill="#8e6b69" d="M 452.28125 1039.890625 C 446.675781 1051.949219 443.460938 1065.332031 443.460938 1079.484375 L 443.460938 1147.003906 C 443.460938 1154.457031 449.5 1160.507812 456.964844 1160.507812 L 970.105469 1160.507812 C 977.574219 1160.507812 983.609375 1154.457031 983.609375 1147.003906 L 983.609375 1079.484375 C 983.609375 1069.789062 982.070312 1060.363281 979.21875 1051.289062 C 1034.746094 1039.164062 1076.824219 1008.617188 1094.082031 966.851562 C 1115.039062 916.15625 1111.972656 847.882812 1086.480469 796.960938 C 1072.285156 768.628906 1051.855469 744.945312 1032.101562 722.054688 C 1028.304688 717.667969 1024.523438 713.277344 1020.796875 708.875 C 998.367188 682.367188 984.324219 658.265625 983.609375 620.359375 C 983.609375 610.839844 983.109375 601.28125 982.125 591.933594 C 981.339844 584.523438 974.519531 579.226562 967.28125 579.917969 C 959.855469 580.699219 954.480469 587.34375 955.265625 594.769531 C 956.15625 603.183594 956.601562 611.785156 956.601562 620.617188 C 957.453125 666.625 974.640625 696.144531 1000.175781 726.335938 C 1003.972656 730.820312 1007.808594 735.261719 1011.65625 739.71875 C 1031.195312 762.363281 1049.65625 783.742188 1062.335938 809.074219 C 1084.183594 852.703125 1086.980469 913.363281 1069.140625 956.5625 C 1045.535156 1013.640625 973.171875 1026.078125 951.550781 1028.535156 C 892.648438 1035.191406 855.039062 1011.574219 808.0625 965.675781 L 808.0625 890.433594 C 808.0625 890.164062 807.925781 889.945312 807.914062 889.675781 C 856.632812 858.441406 889.082031 803.941406 889.082031 741.894531 L 889.082031 647.367188 C 889.082031 639.914062 883.046875 633.863281 875.578125 633.863281 C 868.113281 633.863281 862.074219 639.914062 862.074219 647.367188 L 862.074219 741.894531 C 862.074219 823.792969 795.433594 890.433594 713.535156 890.433594 C 631.636719 890.433594 564.996094 823.792969 564.996094 741.894531 L 564.996094 633.109375 C 616.875 627.234375 658.777344 588.003906 668.675781 537.433594 C 683.394531 554.988281 700.316406 570.585938 719.21875 584.023438 C 725.296875 588.34375 733.710938 586.925781 738.058594 580.847656 C 742.367188 574.773438 740.949219 566.332031 734.871094 562.011719 C 708.253906 543.078125 686.054688 519.433594 668.867188 491.710938 C 665.691406 486.59375 659.507812 484.164062 653.699219 485.835938 C 647.894531 487.496094 643.882812 492.792969 643.882812 498.828125 L 643.882812 514.476562 C 643.882812 565.414062 602.425781 606.855469 551.492188 606.855469 C 544.023438 606.855469 537.988281 612.90625 537.988281 620.359375 L 537.988281 741.894531 C 537.988281 803.941406 570.4375 858.441406 619.160156 889.675781 C 619.144531 889.945312 619.011719 890.164062 619.011719 890.433594 L 619.011719 984.957031 L 537.988281 984.957031 C 510.144531 984.957031 485.136719 997.140625 467.824219 1016.367188 C 466.917969 1015.949219 466.09375 1015.382812 465.082031 1015.167969 C 426.664062 1006.820312 378.617188 985.539062 369.625 952.957031 C 365.628906 938.507812 369.164062 920.804688 380.128906 900.316406 C 390.5 880.941406 404.097656 863.683594 418.519531 845.414062 C 424.960938 837.257812 431.390625 829.085938 437.519531 820.726562 C 476.816406 767.210938 491.996094 696.871094 483.933594 605.667969 C 483.285156 598.253906 476.613281 592.839844 469.296875 593.40625 C 461.855469 594.070312 456.371094 600.617188 457.035156 608.046875 C 464.515625 692.414062 451.011719 756.746094 415.765625 804.726562 C 409.8125 812.839844 403.558594 820.769531 397.320312 828.679688 C 382.816406 847.074219 367.816406 866.085938 356.324219 887.558594 C 341.96875 914.363281 337.6875 938.777344 343.601562 960.140625 C 355.164062 1002.148438 406.03125 1028.453125 452.28125 1039.890625 Z M 713.535156 917.441406 C 737.449219 917.441406 760.257812 912.59375 781.054688 903.894531 L 781.054688 984.957031 C 781.054688 1022.1875 750.765625 1052.476562 713.535156 1052.476562 C 676.304688 1052.476562 646.015625 1022.1875 646.015625 984.957031 L 646.015625 903.894531 C 666.8125 912.59375 689.621094 917.441406 713.535156 917.441406 Z M 537.988281 1011.964844 L 622.992188 1011.964844 C 634.648438 1050.964844 670.808594 1079.484375 713.535156 1079.484375 C 760 1079.484375 798.664062 1045.738281 806.523438 1001.488281 C 840.726562 1032.371094 878.617188 1056.621094 932.605469 1056.621094 C 938.855469 1056.621094 945.421875 1056.164062 952.117188 1055.488281 C 955.035156 1063.132812 956.601562 1071.167969 956.601562 1079.484375 L 956.601562 1133.5 L 470.46875 1133.5 L 470.46875 1079.484375 C 470.46875 1042.253906 500.757812 1011.964844 537.988281 1011.964844 Z M 537.988281 1011.964844 " fill-opacity="1" fill-rule="nonzero"/><path fill="#8e6b69" d="M 694.953125 710.511719 C 691.863281 705.867188 685.582031 704.582031 680.910156 707.703125 C 659.710938 721.839844 632.324219 721.839844 611.125 707.703125 C 606.464844 704.582031 600.171875 705.867188 597.078125 710.511719 C 593.988281 715.167969 595.230469 721.449219 599.890625 724.554688 C 613.890625 733.898438 629.960938 738.570312 646.015625 738.570312 C 662.074219 738.570312 678.140625 733.898438 692.144531 724.554688 C 696.804688 721.449219 698.058594 715.167969 694.953125 710.511719 Z M 694.953125 710.511719 " fill-opacity="1" fill-rule="nonzero"/><path fill="#8e6b69" d="M 827.183594 724.554688 C 831.839844 721.449219 833.097656 715.167969 829.992188 710.511719 C 826.898438 705.867188 820.621094 704.582031 815.945312 707.703125 C 794.746094 721.839844 767.359375 721.839844 746.160156 707.703125 C 741.5 704.582031 735.207031 705.867188 732.117188 710.511719 C 729.023438 715.167969 730.265625 721.449219 734.925781 724.554688 C 748.929688 733.898438 764.996094 738.570312 781.054688 738.570312 C 797.109375 738.570312 813.179688 733.898438 827.183594 724.554688 Z M 827.183594 724.554688 " fill-opacity="1" fill-rule="nonzero"/><path fill="#8e6b69" d="M 1157.089844 445.3125 L 1139.671875 417.5625 L 1113.554688 375.972656 C 1113.554688 375.972656 1113.554688 375.957031 1113.554688 375.957031 C 1113.554688 375.957031 1113.539062 375.957031 1113.539062 375.945312 L 1096.132812 348.222656 C 1092.179688 341.902344 1083.859375 339.984375 1077.511719 343.96875 C 1071.207031 347.925781 1069.300781 356.269531 1073.273438 362.574219 L 1083.507812 378.875 L 1037.015625 408.070312 L 1035.488281 405.625 C 1033.585938 402.585938 1030.5625 400.441406 1027.0625 399.644531 C 1023.59375 398.820312 1019.90625 399.46875 1016.867188 401.371094 L 767.199219 558.148438 C 764.175781 560.054688 762.011719 563.078125 761.230469 566.574219 L 749.5625 617.566406 L 720.3125 635.929688 C 713.996094 639.886719 712.105469 648.230469 716.074219 654.539062 C 718.613281 658.628906 723 660.871094 727.5 660.871094 C 729.957031 660.871094 732.425781 660.210938 734.667969 658.804688 L 763.890625 640.453125 L 814.894531 652.105469 C 815.878906 652.335938 816.890625 652.445312 817.90625 652.445312 C 820.429688 652.445312 822.914062 651.742188 825.089844 650.378906 L 838.957031 641.667969 L 880.5625 615.554688 L 922.167969 589.4375 C 922.167969 589.4375 922.179688 589.4375 922.179688 589.4375 C 922.179688 589.4375 922.179688 589.4375 922.195312 589.421875 L 1074.757812 493.628906 C 1081.0625 489.671875 1082.96875 481.328125 1079 475.019531 L 1077.472656 472.589844 L 1123.964844 443.394531 L 1134.203125 459.707031 C 1136.753906 463.800781 1141.15625 466.027344 1145.652344 466.027344 C 1148.109375 466.027344 1150.582031 465.367188 1152.824219 463.960938 C 1159.140625 459.964844 1161.058594 451.617188 1157.089844 445.3125 Z M 786.292969 578.039062 L 950.445312 474.964844 L 979.625 521.445312 L 960.882812 533.222656 L 950.644531 516.921875 C 946.691406 510.601562 938.34375 508.683594 932.039062 512.667969 C 925.71875 516.625 923.8125 524.96875 927.785156 531.289062 L 938.019531 547.589844 L 919.277344 559.363281 L 909.042969 543.050781 C 905.085938 536.730469 896.738281 534.816406 890.433594 538.796875 C 884.113281 542.753906 882.210938 551.101562 886.179688 557.40625 L 896.414062 573.71875 L 877.660156 585.492188 L 867.421875 569.179688 C 863.464844 562.863281 855.136719 560.945312 848.816406 564.929688 C 842.496094 568.882812 840.589844 577.230469 844.5625 583.535156 L 854.796875 599.847656 L 836.054688 611.609375 L 825.820312 595.3125 C 821.863281 588.992188 813.542969 587.074219 807.195312 591.058594 C 800.878906 595.015625 798.988281 603.359375 802.957031 609.664062 L 811.746094 623.667969 L 777.664062 615.878906 Z M 1002.488281 507.089844 L 973.304688 460.613281 L 1019.785156 431.429688 L 1048.964844 477.910156 Z M 1063.132812 449.675781 L 1051.371094 430.929688 L 1097.847656 401.734375 L 1109.609375 420.480469 Z M 1063.132812 449.675781 " fill-opacity="1" fill-rule="nonzero"/><path fill="#8e6b69" d="M 713.535156 846.546875 C 744.378906 846.546875 773.476562 817.796875 774.707031 816.566406 C 778.664062 812.625 778.664062 806.210938 774.707031 802.253906 C 770.789062 798.3125 764.363281 798.296875 760.394531 802.226562 C 753.683594 808.925781 732.144531 826.289062 713.535156 826.289062 C 694.925781 826.289062 673.390625 808.925781 666.664062 802.242188 C 662.695312 798.296875 656.265625 798.3125 652.351562 802.269531 C 648.394531 806.222656 648.394531 812.625 652.351562 816.582031 C 653.59375 817.796875 682.691406 846.546875 713.535156 846.546875 Z M 713.535156 846.546875 " fill-opacity="1" fill-rule="nonzero"/></svg>